<svg width="1440" height="778" xmlns="http://www.w3.org/2000/svg"><g><path d="M-112.4971768190153,-39.87410021480173L-117.1555345482193,298.77938754623756L-98.19551380816847,87.43397135986015Z" fill="#f4f9ff" stroke="#f4f9ff" fill-opacity="1" stroke-opacity="1"/><path d="M-112.4971768190153,-39.87410021480173L-98.19551380816847,87.43397135986015L62.57269480964169,82.01561023714021Z" fill="#fbf9fd" stroke="#fbf9fd" fill-opacity="1" stroke-opacity="1"/><path d="M-112.4971768190153,-39.87410021480173L62.57269480964169,82.01561023714021L109.84019722556695,-28.339759956579655Z" fill="#f8f6fa" stroke="#f8f6fa" fill-opacity="1" stroke-opacity="1"/><path d="M-112.4971768190153,-39.87410021480173L109.84019722556695,-28.339759956579655L171.32627521874383,-115.56038020877168Z" fill="#f5f4f9" stroke="#f5f4f9" fill-opacity="1" stroke-opacity="1"/><path d="M109.84019722556695,-28.339759956579655L62.57269480964169,82.01561023714021L203.589252862148,76.90238969633356Z" fill="#eaedf6" stroke="#eaedf6" fill-opacity="1" stroke-opacity="1"/><path d="M109.84019722556695,-28.339759956579655L203.589252862148,76.90238969633356L171.32627521874383,-115.56038020877168Z" fill="#ebedf5" stroke="#ebedf5" fill-opacity="1" stroke-opacity="1"/><path d="M171.32627521874383,-115.56038020877168L203.589252862148,76.90238969633356L311.15346705308184,45.673811140004545Z" fill="#e4e8f3" stroke="#e4e8f3" fill-opacity="1" stroke-opacity="1"/><path d="M171.32627521874383,-115.56038020877168L311.15346705308184,45.673811140004545L390.46967649366707,-97.95839843573049Z" fill="#dee4f0" stroke="#dee4f0" fill-opacity="1" stroke-opacity="1"/><path d="M171.32627521874383,-115.56038020877168L390.46967649366707,-97.95839843573049L1145.6557875149883,-123.40732858050615Z" fill="#b4d5e7" stroke="#b4d5e7" fill-opacity="1" stroke-opacity="1"/><path d="M390.46967649366707,-97.95839843573049L311.15346705308184,45.673811140004545L445.3688039095141,-85.01573031069711Z" fill="#d0dfed" stroke="#d0dfed" fill-opacity="1" stroke-opacity="1"/><path d="M390.46967649366707,-97.95839843573049L445.3688039095141,-85.01573031069711L760.414580181241,-89.17967481771484Z" fill="#bad7e9" stroke="#bad7e9" fill-opacity="1" stroke-opacity="1"/><path d="M390.46967649366707,-97.95839843573049L760.414580181241,-89.17967481771484L1145.6557875149883,-123.40732858050615Z" fill="#9bccd5" stroke="#9bccd5" fill-opacity="1" stroke-opacity="1"/><path d="M445.3688039095141,-85.01573031069711L311.15346705308184,45.673811140004545L464.48329461272806,83.05976997129619Z" fill="#cbdded" stroke="#cbdded" fill-opacity="1" stroke-opacity="1"/><path d="M445.3688039095141,-85.01573031069711L464.48329461272806,83.05976997129619L672.8201448102482,-50.56983785703778Z" fill="#bad7e9" stroke="#bad7e9" fill-opacity="1" stroke-opacity="1"/><path d="M445.3688039095141,-85.01573031069711L672.8201448102482,-50.56983785703778L760.414580181241,-89.17967481771484Z" fill="#add2e3" stroke="#add2e3" fill-opacity="1" stroke-opacity="1"/><path d="M672.8201448102482,-50.56983785703778L464.48329461272806,83.05976997129619L665.6738176406361,71.7437206255272Z" fill="#acd2e5" stroke="#acd2e5" fill-opacity="1" stroke-opacity="1"/><path d="M672.8201448102482,-50.56983785703778L665.6738176406361,71.7437206255272L731.3900985242799,78.79307318245992Z" fill="#a1cedd" stroke="#a1cedd" fill-opacity="1" stroke-opacity="1"/><path d="M672.8201448102482,-50.56983785703778L731.3900985242799,78.79307318245992L760.414580181241,-89.17967481771484Z" fill="#a0ceda" stroke="#a0ceda" fill-opacity="1" stroke-opacity="1"/><path d="M760.414580181241,-89.17967481771484L731.3900985242799,78.79307318245992L857.2976723965257,80.20067353267223Z" fill="#96cad4" stroke="#96cad4" fill-opacity="1" stroke-opacity="1"/><path d="M760.414580181241,-89.17967481771484L857.2976723965257,80.20067353267223L909.4448529975489,-91.98951119091362Z" fill="#91c9ce" stroke="#91c9ce" fill-opacity="1" stroke-opacity="1"/><path d="M760.414580181241,-89.17967481771484L909.4448529975489,-91.98951119091362L1145.6557875149883,-123.40732858050615Z" fill="#8ac3c4" stroke="#8ac3c4" fill-opacity="1" stroke-opacity="1"/><path d="M909.4448529975489,-91.98951119091362L857.2976723965257,80.20067353267223L1096.0207912116311,65.34199286485091Z" fill="#88c1c2" stroke="#88c1c2" fill-opacity="1" stroke-opacity="1"/><path d="M909.4448529975489,-91.98951119091362L1096.0207912116311,65.34199286485091L1079.3382020993158,-108.96354469237849Z" fill="#86bdba" stroke="#86bdba" fill-opacity="1" stroke-opacity="1"/><path d="M909.4448529975489,-91.98951119091362L1079.3382020993158,-108.96354469237849L1145.6557875149883,-123.40732858050615Z" fill="#85bcb8" stroke="#85bcb8" fill-opacity="1" stroke-opacity="1"/><path d="M1079.3382020993158,-108.96354469237849L1096.0207912116311,65.34199286485091L1145.6557875149883,-123.40732858050615Z" fill="#82b9b1" stroke="#82b9b1" fill-opacity="1" stroke-opacity="1"/><path d="M1145.6557875149883,-123.40732858050615L1096.0207912116311,65.34199286485091L1216.5155951539055,37.880603696685284Z" fill="#80b6ac" stroke="#80b6ac" fill-opacity="1" stroke-opacity="1"/><path d="M1145.6557875149883,-123.40732858050615L1216.5155951539055,37.880603696685284L1313.7235912727192,-73.26613926095888Z" fill="#80b1a4" stroke="#80b1a4" fill-opacity="1" stroke-opacity="1"/><path d="M1145.6557875149883,-123.40732858050615L1313.7235912727192,-73.26613926095888L1634.5307513093576,-77.50934535171837Z" fill="#80a895" stroke="#80a895" fill-opacity="1" stroke-opacity="1"/><path d="M1313.7235912727192,-73.26613926095888L1216.5155951539055,37.880603696685284L1369.0022902656347,48.992386737372726Z" fill="#7fad9c" stroke="#7fad9c" fill-opacity="1" stroke-opacity="1"/><path d="M1313.7235912727192,-73.26613926095888L1369.0022902656347,48.992386737372726L1415.762401027605,-46.11056133406237Z" fill="#80a894" stroke="#80a894" fill-opacity="1" stroke-opacity="1"/><path d="M1313.7235912727192,-73.26613926095888L1415.762401027605,-46.11056133406237L1634.5307513093576,-77.50934535171837Z" fill="#80a38b" stroke="#80a38b" fill-opacity="1" stroke-opacity="1"/><path d="M1415.762401027605,-46.11056133406237L1369.0022902656347,48.992386737372726L1522.6822427823208,18.34634157596156Z" fill="#7fa48d" stroke="#7fa48d" fill-opacity="1" stroke-opacity="1"/><path d="M1415.762401027605,-46.11056133406237L1522.6822427823208,18.34634157596156L1634.5307513093576,-77.50934535171837Z" fill="#809e83" stroke="#809e83" fill-opacity="1" stroke-opacity="1"/><path d="M1634.5307513093576,-77.50934535171837L1522.6822427823208,18.34634157596156L1661.5776493563317,68.53117553982884Z" fill="#7f9980" stroke="#7f9980" fill-opacity="1" stroke-opacity="1"/><path d="M-98.19551380816847,87.43397135986015L-117.1555345482193,298.77938754623756L-67.75000819005072,183.56196678243577Z" fill="#e5f1fe" stroke="#e5f1fe" fill-opacity="1" stroke-opacity="1"/><path d="M-98.19551380816847,87.43397135986015L-67.75000819005072,183.56196678243577L62.57269480964169,82.01561023714021Z" fill="#f3f4fd" stroke="#f3f4fd" fill-opacity="1" stroke-opacity="1"/><path d="M62.57269480964169,82.01561023714021L-67.75000819005072,183.56196678243577L82.29659373871982,180.9537586919032Z" fill="#eaeffa" stroke="#eaeffa" fill-opacity="1" stroke-opacity="1"/><path d="M62.57269480964169,82.01561023714021L82.29659373871982,180.9537586919032L203.589252862148,76.90238969633356Z" fill="#e4eaf7" stroke="#e4eaf7" fill-opacity="1" stroke-opacity="1"/><path d="M203.589252862148,76.90238969633356L82.29659373871982,180.9537586919032L192.94846164993942,264.36898696934804Z" fill="#d6e3f5" stroke="#d6e3f5" fill-opacity="1" stroke-opacity="1"/><path d="M203.589252862148,76.90238969633356L192.94846164993942,264.36898696934804L323.42647161800414,172.50938734505326Z" fill="#cfdef2" stroke="#cfdef2" fill-opacity="1" stroke-opacity="1"/><path d="M203.589252862148,76.90238969633356L323.42647161800414,172.50938734505326L311.15346705308184,45.673811140004545Z" fill="#d6e0f1" stroke="#d6e0f1" fill-opacity="1" stroke-opacity="1"/><path d="M311.15346705308184,45.673811140004545L323.42647161800414,172.50938734505326L464.48329461272806,83.05976997129619Z" fill="#c9dbee" stroke="#c9dbee" fill-opacity="1" stroke-opacity="1"/><path d="M464.48329461272806,83.05976997129619L323.42647161800414,172.50938734505326L488.20363914594054,256.6443031071685Z" fill="#b6d3eb" stroke="#b6d3eb" fill-opacity="1" stroke-opacity="1"/><path d="M464.48329461272806,83.05976997129619L488.20363914594054,256.6443031071685L665.6738176406361,71.7437206255272Z" fill="#acd0e8" stroke="#acd0e8" fill-opacity="1" stroke-opacity="1"/><path d="M665.6738176406361,71.7437206255272L488.20363914594054,256.6443031071685L670.7970683625899,248.52197751170024Z" fill="#94c7e3" stroke="#94c7e3" fill-opacity="1" stroke-opacity="1"/><path d="M665.6738176406361,71.7437206255272L670.7970683625899,248.52197751170024L731.3900985242799,78.79307318245992Z" fill="#97c9dd" stroke="#97c9dd" fill-opacity="1" stroke-opacity="1"/><path d="M731.3900985242799,78.79307318245992L670.7970683625899,248.52197751170024L797.5255919061601,173.6357593233697Z" fill="#8cc4d8" stroke="#8cc4d8" fill-opacity="1" stroke-opacity="1"/><path d="M731.3900985242799,78.79307318245992L797.5255919061601,173.6357593233697L857.2976723965257,80.20067353267223Z" fill="#8cc5d3" stroke="#8cc5d3" fill-opacity="1" stroke-opacity="1"/><path d="M857.2976723965257,80.20067353267223L797.5255919061601,173.6357593233697L933.2754536368884,264.73620236851275Z" fill="#79becc" stroke="#79becc" fill-opacity="1" stroke-opacity="1"/><path d="M857.2976723965257,80.20067353267223L933.2754536368884,264.73620236851275L1010.8655219711363,234.33419479522854Z" fill="#6fb7c3" stroke="#6fb7c3" fill-opacity="1" stroke-opacity="1"/><path d="M857.2976723965257,80.20067353267223L1010.8655219711363,234.33419479522854L1096.0207912116311,65.34199286485091Z" fill="#7cbabe" stroke="#7cbabe" fill-opacity="1" stroke-opacity="1"/><path d="M1096.0207912116311,65.34199286485091L1010.8655219711363,234.33419479522854L1206.4565792912617,186.9145237770863Z" fill="#71b0b2" stroke="#71b0b2" fill-opacity="1" stroke-opacity="1"/><path d="M1096.0207912116311,65.34199286485091L1206.4565792912617,186.9145237770863L1216.5155951539055,37.880603696685284Z" fill="#76b0aa" stroke="#76b0aa" fill-opacity="1" stroke-opacity="1"/><path d="M1216.5155951539055,37.880603696685284L1206.4565792912617,186.9145237770863L1369.0022902656347,48.992386737372726Z" fill="#77aaa0" stroke="#77aaa0" fill-opacity="1" stroke-opacity="1"/><path d="M1369.0022902656347,48.992386737372726L1206.4565792912617,186.9145237770863L1356.1647832486778,252.5819083256647Z" fill="#6ea39b" stroke="#6ea39b" fill-opacity="1" stroke-opacity="1"/><path d="M1369.0022902656347,48.992386737372726L1356.1647832486778,252.5819083256647L1435.6841130158864,176.30569878267124Z" fill="#709f92" stroke="#709f92" fill-opacity="1" stroke-opacity="1"/><path d="M1369.0022902656347,48.992386737372726L1435.6841130158864,176.30569878267124L1522.6822427823208,18.34634157596156Z" fill="#78a08c" stroke="#78a08c" fill-opacity="1" stroke-opacity="1"/><path d="M1522.6822427823208,18.34634157596156L1435.6841130158864,176.30569878267124L1572.995843498502,190.69782371632755Z" fill="#739984" stroke="#739984" fill-opacity="1" stroke-opacity="1"/><path d="M1522.6822427823208,18.34634157596156L1572.995843498502,190.69782371632755L1661.5776493563317,68.53117553982884Z" fill="#779680" stroke="#779680" fill-opacity="1" stroke-opacity="1"/><path d="M1661.5776493563317,68.53117553982884L1572.995843498502,190.69782371632755L1660.2445472590625,388.1007533404045Z" fill="#5d897e" stroke="#5d897e" fill-opacity="1" stroke-opacity="1"/><path d="M1661.5776493563317,68.53117553982884L1660.2445472590625,388.1007533404045L1662.9826802457683,860.6471576914191Z" fill="#1a6f61" stroke="#1a6f61" fill-opacity="1" stroke-opacity="1"/><path d="M-67.75000819005072,183.56196678243577L-117.1555345482193,298.77938754623756L82.29659373871982,180.9537586919032Z" fill="#daeafb" stroke="#daeafb" fill-opacity="1" stroke-opacity="1"/><path d="M82.29659373871982,180.9537586919032L-117.1555345482193,298.77938754623756L86.76139696501195,387.9029242997058Z" fill="#bedef7" stroke="#bedef7" fill-opacity="1" stroke-opacity="1"/><path d="M82.29659373871982,180.9537586919032L86.76139696501195,387.9029242997058L192.94846164993942,264.36898696934804Z" fill="#b8d8f4" stroke="#b8d8f4" fill-opacity="1" stroke-opacity="1"/><path d="M192.94846164993942,264.36898696934804L86.76139696501195,387.9029242997058L243.3640512218699,395.89197267545387Z" fill="#9ccde9" stroke="#9ccde9" fill-opacity="1" stroke-opacity="1"/><path d="M192.94846164993942,264.36898696934804L243.3640512218699,395.89197267545387L300.16256315167993,365.2998920553364Z" fill="#98c9e7" stroke="#98c9e7" fill-opacity="1" stroke-opacity="1"/><path d="M192.94846164993942,264.36898696934804L300.16256315167993,365.2998920553364L323.42647161800414,172.50938734505326Z" fill="#acd0ee" stroke="#acd0ee" fill-opacity="1" stroke-opacity="1"/><path d="M323.42647161800414,172.50938734505326L300.16256315167993,365.2998920553364L488.20363914594054,256.6443031071685Z" fill="#9fcbeb" stroke="#9fcbeb" fill-opacity="1" stroke-opacity="1"/><path d="M488.20363914594054,256.6443031071685L300.16256315167993,365.2998920553364L544.17562964838,404.65362856863067Z" fill="#7cbee1" stroke="#7cbee1" fill-opacity="1" stroke-opacity="1"/><path d="M488.20363914594054,256.6443031071685L544.17562964838,404.65362856863067L636.6199666308239,345.514447465539Z" fill="#6db8df" stroke="#6db8df" fill-opacity="1" stroke-opacity="1"/><path d="M488.20363914594054,256.6443031071685L636.6199666308239,345.514447465539L670.7970683625899,248.52197751170024Z" fill="#77bce2" stroke="#77bce2" fill-opacity="1" stroke-opacity="1"/><path d="M670.7970683625899,248.52197751170024L636.6199666308239,345.514447465539L754.6049578092061,402.45307948440313Z" fill="#5db2d4" stroke="#5db2d4" fill-opacity="1" stroke-opacity="1"/><path d="M670.7970683625899,248.52197751170024L754.6049578092061,402.45307948440313L797.5255919061601,173.6357593233697Z" fill="#68b7d5" stroke="#68b7d5" fill-opacity="1" stroke-opacity="1"/><path d="M797.5255919061601,173.6357593233697L754.6049578092061,402.45307948440313L933.2754536368884,264.73620236851275Z" fill="#5ab2cd" stroke="#5ab2cd" fill-opacity="1" stroke-opacity="1"/><path d="M933.2754536368884,264.73620236851275L754.6049578092061,402.45307948440313L948.0350264697336,396.2950591556728Z" fill="#3fa8be" stroke="#3fa8be" fill-opacity="1" stroke-opacity="1"/><path d="M933.2754536368884,264.73620236851275L948.0350264697336,396.2950591556728L1010.8655219711363,234.33419479522854Z" fill="#4ba8be" stroke="#4ba8be" fill-opacity="1" stroke-opacity="1"/><path d="M1010.8655219711363,234.33419479522854L948.0350264697336,396.2950591556728L1102.413566338364,359.81122157303616Z" fill="#3fa1b3" stroke="#3fa1b3" fill-opacity="1" stroke-opacity="1"/><path d="M1010.8655219711363,234.33419479522854L1102.413566338364,359.81122157303616L1189.744991371408,326.1361432261765Z" fill="#429eae" stroke="#429eae" fill-opacity="1" stroke-opacity="1"/><path d="M1010.8655219711363,234.33419479522854L1189.744991371408,326.1361432261765L1206.4565792912617,186.9145237770863Z" fill="#54a4ac" stroke="#54a4ac" fill-opacity="1" stroke-opacity="1"/><path d="M1206.4565792912617,186.9145237770863L1189.744991371408,326.1361432261765L1356.1647832486778,252.5819083256647Z" fill="#509c9f" stroke="#509c9f" fill-opacity="1" stroke-opacity="1"/><path d="M1356.1647832486778,252.5819083256647L1189.744991371408,326.1361432261765L1310.3352208482102,391.65315801277757Z" fill="#3a9197" stroke="#3a9197" fill-opacity="1" stroke-opacity="1"/><path d="M1356.1647832486778,252.5819083256647L1310.3352208482102,391.65315801277757L1512.0522043760866,308.0868908506818Z" fill="#3c8b8c" stroke="#3c8b8c" fill-opacity="1" stroke-opacity="1"/><path d="M1356.1647832486778,252.5819083256647L1512.0522043760866,308.0868908506818L1435.6841130158864,176.30569878267124Z" fill="#53918a" stroke="#53918a" fill-opacity="1" stroke-opacity="1"/><path d="M1435.6841130158864,176.30569878267124L1512.0522043760866,308.0868908506818L1572.995843498502,190.69782371632755Z" fill="#5a9083" stroke="#5a9083" fill-opacity="1" stroke-opacity="1"/><path d="M1572.995843498502,190.69782371632755L1512.0522043760866,308.0868908506818L1660.2445472590625,388.1007533404045Z" fill="#43827c" stroke="#43827c" fill-opacity="1" stroke-opacity="1"/><path d="M-117.1555345482193,298.77938754623756L-66.41075467690825,813.9631511177868L-43.3557522459887,642.9734338866547Z" fill="#91c2bd" stroke="#91c2bd" fill-opacity="1" stroke-opacity="1"/><path d="M-117.1555345482193,298.77938754623756L-43.3557522459887,642.9734338866547L-38.16737823653966,504.33788932161406Z" fill="#91d0d6" stroke="#91d0d6" fill-opacity="1" stroke-opacity="1"/><path d="M-117.1555345482193,298.77938754623756L-38.16737823653966,504.33788932161406L86.76139696501195,387.9029242997058Z" fill="#a3d6e6" stroke="#a3d6e6" fill-opacity="1" stroke-opacity="1"/><path d="M86.76139696501195,387.9029242997058L-38.16737823653966,504.33788932161406L62.679788244422525,484.0721644787118Z" fill="#8cccd7" stroke="#8cccd7" fill-opacity="1" stroke-opacity="1"/><path d="M86.76139696501195,387.9029242997058L62.679788244422525,484.0721644787118L244.6517842100002,508.0387740721926Z" fill="#82c6d3" stroke="#82c6d3" fill-opacity="1" stroke-opacity="1"/><path d="M86.76139696501195,387.9029242997058L244.6517842100002,508.0387740721926L243.3640512218699,395.89197267545387Z" fill="#84c5d7" stroke="#84c5d7" fill-opacity="1" stroke-opacity="1"/><path d="M243.3640512218699,395.89197267545387L244.6517842100002,508.0387740721926L322.1909336815588,528.8008998357691Z" fill="#72baca" stroke="#72baca" fill-opacity="1" stroke-opacity="1"/><path d="M243.3640512218699,395.89197267545387L322.1909336815588,528.8008998357691L300.16256315167993,365.2998920553364Z" fill="#7bbed3" stroke="#7bbed3" fill-opacity="1" stroke-opacity="1"/><path d="M300.16256315167993,365.2998920553364L322.1909336815588,528.8008998357691L544.17562964838,404.65362856863067Z" fill="#6bb8d0" stroke="#6bb8d0" fill-opacity="1" stroke-opacity="1"/><path d="M544.17562964838,404.65362856863067L322.1909336815588,528.8008998357691L529.7202339489013,525.794189341832Z" fill="#56aec1" stroke="#56aec1" fill-opacity="1" stroke-opacity="1"/><path d="M544.17562964838,404.65362856863067L529.7202339489013,525.794189341832L647.46214550687,471.8144565098919Z" fill="#46abc3" stroke="#46abc3" fill-opacity="1" stroke-opacity="1"/><path d="M544.17562964838,404.65362856863067L647.46214550687,471.8144565098919L636.6199666308239,345.514447465539Z" fill="#52afcc" stroke="#52afcc" fill-opacity="1" stroke-opacity="1"/><path d="M636.6199666308239,345.514447465539L647.46214550687,471.8144565098919L754.6049578092061,402.45307948440313Z" fill="#49acc6" stroke="#49acc6" fill-opacity="1" stroke-opacity="1"/><path d="M754.6049578092061,402.45307948440313L647.46214550687,471.8144565098919L783.9956349949352,481.92571823718026Z" fill="#35a6b7" stroke="#35a6b7" fill-opacity="1" stroke-opacity="1"/><path d="M754.6049578092061,402.45307948440313L783.9956349949352,481.92571823718026L882.8659960161895,451.77992179756984Z" fill="#2da3b2" stroke="#2da3b2" fill-opacity="1" stroke-opacity="1"/><path d="M754.6049578092061,402.45307948440313L882.8659960161895,451.77992179756984L948.0350264697336,396.2950591556728Z" fill="#2ea3b2" stroke="#2ea3b2" fill-opacity="1" stroke-opacity="1"/><path d="M948.0350264697336,396.2950591556728L882.8659960161895,451.77992179756984L1046.9962765346281,484.262929672841Z" fill="#229aa2" stroke="#229aa2" fill-opacity="1" stroke-opacity="1"/><path d="M948.0350264697336,396.2950591556728L1046.9962765346281,484.262929672841L1102.413566338364,359.81122157303616Z" fill="#2799a0" stroke="#2799a0" fill-opacity="1" stroke-opacity="1"/><path d="M1102.413566338364,359.81122157303616L1046.9962765346281,484.262929672841L1171.6350614582188,515.7700846716762Z" fill="#189190" stroke="#189190" fill-opacity="1" stroke-opacity="1"/><path d="M1102.413566338364,359.81122157303616L1171.6350614582188,515.7700846716762L1189.744991371408,326.1361432261765Z" fill="#259295" stroke="#259295" fill-opacity="1" stroke-opacity="1"/><path d="M1189.744991371408,326.1361432261765L1171.6350614582188,515.7700846716762L1310.3352208482102,391.65315801277757Z" fill="#218d8b" stroke="#218d8b" fill-opacity="1" stroke-opacity="1"/><path d="M1310.3352208482102,391.65315801277757L1171.6350614582188,515.7700846716762L1316.301719576586,538.8896423298866Z" fill="#128378" stroke="#128378" fill-opacity="1" stroke-opacity="1"/><path d="M1310.3352208482102,391.65315801277757L1316.301719576586,538.8896423298866L1514.7731163795106,477.8551010787487Z" fill="#127d6e" stroke="#127d6e" fill-opacity="1" stroke-opacity="1"/><path d="M1310.3352208482102,391.65315801277757L1514.7731163795106,477.8551010787487L1512.0522043760866,308.0868908506818Z" fill="#278177" stroke="#278177" fill-opacity="1" stroke-opacity="1"/><path d="M1512.0522043760866,308.0868908506818L1514.7731163795106,477.8551010787487L1575.1860121148638,461.8721209303476Z" fill="#207968" stroke="#207968" fill-opacity="1" stroke-opacity="1"/><path d="M1512.0522043760866,308.0868908506818L1575.1860121148638,461.8721209303476L1660.2445472590625,388.1007533404045Z" fill="#29796c" stroke="#29796c" fill-opacity="1" stroke-opacity="1"/><path d="M1660.2445472590625,388.1007533404045L1575.1860121148638,461.8721209303476L1615.3557000611909,683.2029575505294Z" fill="#126950" stroke="#126950" fill-opacity="1" stroke-opacity="1"/><path d="M1660.2445472590625,388.1007533404045L1615.3557000611909,683.2029575505294L1662.9826802457683,860.6471576914191Z" fill="#125530" stroke="#125530" fill-opacity="1" stroke-opacity="1"/><path d="M-38.16737823653966,504.33788932161406L-43.3557522459887,642.9734338866547L96.01581135531887,592.9503263556398Z" fill="#8cbebb" stroke="#8cbebb" fill-opacity="1" stroke-opacity="1"/><path d="M-38.16737823653966,504.33788932161406L96.01581135531887,592.9503263556398L62.679788244422525,484.0721644787118Z" fill="#89c3c7" stroke="#89c3c7" fill-opacity="1" stroke-opacity="1"/><path d="M62.679788244422525,484.0721644787118L96.01581135531887,592.9503263556398L244.6517842100002,508.0387740721926Z" fill="#7fbcc3" stroke="#7fbcc3" fill-opacity="1" stroke-opacity="1"/><path d="M244.6517842100002,508.0387740721926L96.01581135531887,592.9503263556398L259.240016869735,588.4236118406989Z" fill="#79b3b8" stroke="#79b3b8" fill-opacity="1" stroke-opacity="1"/><path d="M244.6517842100002,508.0387740721926L259.240016869735,588.4236118406989L322.1909336815588,528.8008998357691Z" fill="#72b1ba" stroke="#72b1ba" fill-opacity="1" stroke-opacity="1"/><path d="M322.1909336815588,528.8008998357691L259.240016869735,588.4236118406989L297.04347759485245,614.8926582513377Z" fill="#70abb1" stroke="#70abb1" fill-opacity="1" stroke-opacity="1"/><path d="M322.1909336815588,528.8008998357691L297.04347759485245,614.8926582513377L524.2852643900551,669.2832893645391Z" fill="#62a3a7" stroke="#62a3a7" fill-opacity="1" stroke-opacity="1"/><path d="M322.1909336815588,528.8008998357691L524.2852643900551,669.2832893645391L529.7202339489013,525.794189341832Z" fill="#57a2ac" stroke="#57a2ac" fill-opacity="1" stroke-opacity="1"/><path d="M529.7202339489013,525.794189341832L524.2852643900551,669.2832893645391L610.1735003571957,684.2098810407333Z" fill="#48969c" stroke="#48969c" fill-opacity="1" stroke-opacity="1"/><path d="M529.7202339489013,525.794189341832L610.1735003571957,684.2098810407333L647.46214550687,471.8144565098919Z" fill="#439daa" stroke="#439daa" fill-opacity="1" stroke-opacity="1"/><path d="M647.46214550687,471.8144565098919L610.1735003571957,684.2098810407333L798.9425278315321,634.0155089157633Z" fill="#379499" stroke="#379499" fill-opacity="1" stroke-opacity="1"/><path d="M647.46214550687,471.8144565098919L798.9425278315321,634.0155089157633L783.9956349949352,481.92571823718026Z" fill="#2f9ba4" stroke="#2f9ba4" fill-opacity="1" stroke-opacity="1"/><path d="M783.9956349949352,481.92571823718026L798.9425278315321,634.0155089157633L882.8659960161895,451.77992179756984Z" fill="#25999e" stroke="#25999e" fill-opacity="1" stroke-opacity="1"/><path d="M882.8659960161895,451.77992179756984L798.9425278315321,634.0155089157633L927.5372293638065,663.1323198205791Z" fill="#1f8e8b" stroke="#1f8e8b" fill-opacity="1" stroke-opacity="1"/><path d="M882.8659960161895,451.77992179756984L927.5372293638065,663.1323198205791L1046.9962765346281,484.262929672841Z" fill="#1c908e" stroke="#1c908e" fill-opacity="1" stroke-opacity="1"/><path d="M1046.9962765346281,484.262929672841L927.5372293638065,663.1323198205791L1037.6667266292498,676.8296919879504Z" fill="#198276" stroke="#198276" fill-opacity="1" stroke-opacity="1"/><path d="M1046.9962765346281,484.262929672841L1037.6667266292498,676.8296919879504L1171.6350614582188,515.7700846716762Z" fill="#158479" stroke="#158479" fill-opacity="1" stroke-opacity="1"/><path d="M1171.6350614582188,515.7700846716762L1037.6667266292498,676.8296919879504L1222.3000294342637,593.2047097594477Z" fill="#137b69" stroke="#137b69" fill-opacity="1" stroke-opacity="1"/><path d="M1171.6350614582188,515.7700846716762L1222.3000294342637,593.2047097594477L1316.301719576586,538.8896423298866Z" fill="#127b6a" stroke="#127b6a" fill-opacity="1" stroke-opacity="1"/><path d="M1316.301719576586,538.8896423298866L1222.3000294342637,593.2047097594477L1312.927148353774,613.4914814122021Z" fill="#12745d" stroke="#12745d" fill-opacity="1" stroke-opacity="1"/><path d="M1316.301719576586,538.8896423298866L1312.927148353774,613.4914814122021L1424.3201471259817,589.0365345356986Z" fill="#127056" stroke="#127056" fill-opacity="1" stroke-opacity="1"/><path d="M1316.301719576586,538.8896423298866L1424.3201471259817,589.0365345356986L1514.7731163795106,477.8551010787487Z" fill="#12725a" stroke="#12725a" fill-opacity="1" stroke-opacity="1"/><path d="M1514.7731163795106,477.8551010787487L1424.3201471259817,589.0365345356986L1615.3557000611909,683.2029575505294Z" fill="#126543" stroke="#126543" fill-opacity="1" stroke-opacity="1"/><path d="M1514.7731163795106,477.8551010787487L1615.3557000611909,683.2029575505294L1575.1860121148638,461.8721209303476Z" fill="#126849" stroke="#126849" fill-opacity="1" stroke-opacity="1"/><path d="M-43.3557522459887,642.9734338866547L-66.41075467690825,813.9631511177868L81.3134046131745,717.5979435397312Z" fill="#8eab98" stroke="#8eab98" fill-opacity="1" stroke-opacity="1"/><path d="M-43.3557522459887,642.9734338866547L81.3134046131745,717.5979435397312L96.01581135531887,592.9503263556398Z" fill="#88b1a8" stroke="#88b1a8" fill-opacity="1" stroke-opacity="1"/><path d="M96.01581135531887,592.9503263556398L81.3134046131745,717.5979435397312L210.94597739167511,768.2859483803622Z" fill="#80a69b" stroke="#80a69b" fill-opacity="1" stroke-opacity="1"/><path d="M96.01581135531887,592.9503263556398L210.94597739167511,768.2859483803622L259.240016869735,588.4236118406989Z" fill="#7aa8a3" stroke="#7aa8a3" fill-opacity="1" stroke-opacity="1"/><path d="M259.240016869735,588.4236118406989L210.94597739167511,768.2859483803622L297.04347759485245,614.8926582513377Z" fill="#73a29e" stroke="#73a29e" fill-opacity="1" stroke-opacity="1"/><path d="M297.04347759485245,614.8926582513377L210.94597739167511,768.2859483803622L370.22101952927187,783.8616940821521Z" fill="#70978d" stroke="#70978d" fill-opacity="1" stroke-opacity="1"/><path d="M297.04347759485245,614.8926582513377L370.22101952927187,783.8616940821521L458.98444706806913,746.7443905910477Z" fill="#63938d" stroke="#63938d" fill-opacity="1" stroke-opacity="1"/><path d="M297.04347759485245,614.8926582513377L458.98444706806913,746.7443905910477L524.2852643900551,669.2832893645391Z" fill="#5c9694" stroke="#5c9694" fill-opacity="1" stroke-opacity="1"/><path d="M524.2852643900551,669.2832893645391L458.98444706806913,746.7443905910477L594.5241501624696,754.5472144894302Z" fill="#4d8a86" stroke="#4d8a86" fill-opacity="1" stroke-opacity="1"/><path d="M524.2852643900551,669.2832893645391L594.5241501624696,754.5472144894302L610.1735003571957,684.2098810407333Z" fill="#458a89" stroke="#458a89" fill-opacity="1" stroke-opacity="1"/><path d="M610.1735003571957,684.2098810407333L594.5241501624696,754.5472144894302L761.0105807008222,739.1661337995902Z" fill="#3b837c" stroke="#3b837c" fill-opacity="1" stroke-opacity="1"/><path d="M610.1735003571957,684.2098810407333L761.0105807008222,739.1661337995902L798.9425278315321,634.0155089157633Z" fill="#32867f" stroke="#32867f" fill-opacity="1" stroke-opacity="1"/><path d="M798.9425278315321,634.0155089157633L761.0105807008222,739.1661337995902L892.7991643641144,734.1864375001751Z" fill="#268073" stroke="#268073" fill-opacity="1" stroke-opacity="1"/><path d="M798.9425278315321,634.0155089157633L892.7991643641144,734.1864375001751L927.5372293638065,663.1323198205791Z" fill="#1f8173" stroke="#1f8173" fill-opacity="1" stroke-opacity="1"/><path d="M927.5372293638065,663.1323198205791L892.7991643641144,734.1864375001751L1000.7689883443527,755.2835652953945Z" fill="#1c7762" stroke="#1c7762" fill-opacity="1" stroke-opacity="1"/><path d="M927.5372293638065,663.1323198205791L1000.7689883443527,755.2835652953945L1037.6667266292498,676.8296919879504Z" fill="#1a7661" stroke="#1a7661" fill-opacity="1" stroke-opacity="1"/><path d="M1037.6667266292498,676.8296919879504L1000.7689883443527,755.2835652953945L1221.578677261714,758.348072534427Z" fill="#156c4f" stroke="#156c4f" fill-opacity="1" stroke-opacity="1"/><path d="M1037.6667266292498,676.8296919879504L1221.578677261714,758.348072534427L1222.3000294342637,593.2047097594477Z" fill="#126f54" stroke="#126f54" fill-opacity="1" stroke-opacity="1"/><path d="M1222.3000294342637,593.2047097594477L1221.578677261714,758.348072534427L1312.927148353774,613.4914814122021Z" fill="#126c4f" stroke="#126c4f" fill-opacity="1" stroke-opacity="1"/><path d="M1312.927148353774,613.4914814122021L1221.578677261714,758.348072534427L1367.999758562073,814.3369711772539Z" fill="#125f37" stroke="#125f37" fill-opacity="1" stroke-opacity="1"/><path d="M1312.927148353774,613.4914814122021L1367.999758562073,814.3369711772539L1424.3201471259817,589.0365345356986Z" fill="#12623e" stroke="#12623e" fill-opacity="1" stroke-opacity="1"/><path d="M1424.3201471259817,589.0365345356986L1367.999758562073,814.3369711772539L1510.4568286519498,741.7427577939816Z" fill="#12582c" stroke="#12582c" fill-opacity="1" stroke-opacity="1"/><path d="M1424.3201471259817,589.0365345356986L1510.4568286519498,741.7427577939816L1615.3557000611909,683.2029575505294Z" fill="#12592d" stroke="#12592d" fill-opacity="1" stroke-opacity="1"/><path d="M1615.3557000611909,683.2029575505294L1510.4568286519498,741.7427577939816L1605.9948724485002,716.6779011441395Z" fill="#12501f" stroke="#12501f" fill-opacity="1" stroke-opacity="1"/><path d="M1615.3557000611909,683.2029575505294L1605.9948724485002,716.6779011441395L1662.9826802457683,860.6471576914191Z" fill="#124715" stroke="#124715" fill-opacity="1" stroke-opacity="1"/><path d="M-66.41075467690825,813.9631511177868L-50.82737606950104,880.3317602491006L36.73572386614978,915.9703364642337Z" fill="#8f987d" stroke="#8f987d" fill-opacity="1" stroke-opacity="1"/><path d="M-66.41075467690825,813.9631511177868L36.73572386614978,915.9703364642337L81.3134046131745,717.5979435397312Z" fill="#8b9d81" stroke="#8b9d81" fill-opacity="1" stroke-opacity="1"/><path d="M81.3134046131745,717.5979435397312L36.73572386614978,915.9703364642337L191.46918695652857,872.6439446466975Z" fill="#839479" stroke="#839479" fill-opacity="1" stroke-opacity="1"/><path d="M81.3134046131745,717.5979435397312L191.46918695652857,872.6439446466975L210.94597739167511,768.2859483803622Z" fill="#7d9783" stroke="#7d9783" fill-opacity="1" stroke-opacity="1"/><path d="M210.94597739167511,768.2859483803622L191.46918695652857,872.6439446466975L370.22101952927187,783.8616940821521Z" fill="#738e79" stroke="#738e79" fill-opacity="1" stroke-opacity="1"/><path d="M370.22101952927187,783.8616940821521L191.46918695652857,872.6439446466975L384.0960295777768,887.2990772803314Z" fill="#6c8570" stroke="#6c8570" fill-opacity="1" stroke-opacity="1"/><path d="M370.22101952927187,783.8616940821521L384.0960295777768,887.2990772803314L458.98444706806913,746.7443905910477Z" fill="#5f8575" stroke="#5f8575" fill-opacity="1" stroke-opacity="1"/><path d="M458.98444706806913,746.7443905910477L384.0960295777768,887.2990772803314L504.65586750069633,964.2224294343032Z" fill="#587b6c" stroke="#587b6c" fill-opacity="1" stroke-opacity="1"/><path d="M458.98444706806913,746.7443905910477L504.65586750069633,964.2224294343032L594.5241501624696,754.5472144894302Z" fill="#4e7d6e" stroke="#4e7d6e" fill-opacity="1" stroke-opacity="1"/><path d="M594.5241501624696,754.5472144894302L504.65586750069633,964.2224294343032L663.2513159094378,885.5105538899079Z" fill="#447367" stroke="#447367" fill-opacity="1" stroke-opacity="1"/><path d="M594.5241501624696,754.5472144894302L663.2513159094378,885.5105538899079L761.0105807008222,739.1661337995902Z" fill="#397a6a" stroke="#397a6a" fill-opacity="1" stroke-opacity="1"/><path d="M761.0105807008222,739.1661337995902L663.2513159094378,885.5105538899079L759.535879122559,867.1673463145271Z" fill="#31725c" stroke="#31725c" fill-opacity="1" stroke-opacity="1"/><path d="M761.0105807008222,739.1661337995902L759.535879122559,867.1673463145271L892.7991643641144,734.1864375001751Z" fill="#287561" stroke="#287561" fill-opacity="1" stroke-opacity="1"/><path d="M892.7991643641144,734.1864375001751L759.535879122559,867.1673463145271L888.7691419711336,930.6727631832473Z" fill="#226b4e" stroke="#226b4e" fill-opacity="1" stroke-opacity="1"/><path d="M892.7991643641144,734.1864375001751L888.7691419711336,930.6727631832473L1000.7689883443527,755.2835652953945Z" fill="#1d6b4e" stroke="#1d6b4e" fill-opacity="1" stroke-opacity="1"/><path d="M1000.7689883443527,755.2835652953945L888.7691419711336,930.6727631832473L1058.8170050620101,893.885471962858Z" fill="#1a6040" stroke="#1a6040" fill-opacity="1" stroke-opacity="1"/><path d="M1000.7689883443527,755.2835652953945L1058.8170050620101,893.885471962858L1221.578677261714,758.348072534427Z" fill="#15613c" stroke="#15613c" fill-opacity="1" stroke-opacity="1"/><path d="M1221.578677261714,758.348072534427L1058.8170050620101,893.885471962858L1209.1361135127954,875.9528049547225Z" fill="#12582c" stroke="#12582c" fill-opacity="1" stroke-opacity="1"/><path d="M1221.578677261714,758.348072534427L1209.1361135127954,875.9528049547225L1367.999758562073,814.3369711772539Z" fill="#125526" stroke="#125526" fill-opacity="1" stroke-opacity="1"/><path d="M1367.999758562073,814.3369711772539L1209.1361135127954,875.9528049547225L1357.0683141215704,950.3217560239136Z" fill="#12491b" stroke="#12491b" fill-opacity="1" stroke-opacity="1"/><path d="M1367.999758562073,814.3369711772539L1357.0683141215704,950.3217560239136L1482.6064836932346,932.9616240388714Z" fill="#124111" stroke="#124111" fill-opacity="1" stroke-opacity="1"/><path d="M1367.999758562073,814.3369711772539L1482.6064836932346,932.9616240388714L1510.4568286519498,741.7427577939816Z" fill="#12470e" stroke="#12470e" fill-opacity="1" stroke-opacity="1"/><path d="M1510.4568286519498,741.7427577939816L1482.6064836932346,932.9616240388714L1662.9826802457683,860.6471576914191Z" fill="#123f00" stroke="#123f00" fill-opacity="1" stroke-opacity="1"/><path d="M1510.4568286519498,741.7427577939816L1662.9826802457683,860.6471576914191L1605.9948724485002,716.6779011441395Z" fill="#124610" stroke="#124610" fill-opacity="1" stroke-opacity="1"/><path d="M36.73572386614978,915.9703364642337L504.65586750069633,964.2224294343032L191.46918695652857,872.6439446466975Z" fill="#757f72" stroke="#757f72" fill-opacity="1" stroke-opacity="1"/><path d="M191.46918695652857,872.6439446466975L504.65586750069633,964.2224294343032L384.0960295777768,887.2990772803314Z" fill="#657a6e" stroke="#657a6e" fill-opacity="1" stroke-opacity="1"/><path d="M504.65586750069633,964.2224294343032L1357.0683141215704,950.3217560239136L888.7691419711336,930.6727631832473Z" fill="#1d5847" stroke="#1d5847" fill-opacity="1" stroke-opacity="1"/><path d="M504.65586750069633,964.2224294343032L888.7691419711336,930.6727631832473L663.2513159094378,885.5105538899079Z" fill="#37665d" stroke="#37665d" fill-opacity="1" stroke-opacity="1"/><path d="M663.2513159094378,885.5105538899079L888.7691419711336,930.6727631832473L759.535879122559,867.1673463145271Z" fill="#2c6756" stroke="#2c6756" fill-opacity="1" stroke-opacity="1"/><path d="M888.7691419711336,930.6727631832473L1357.0683141215704,950.3217560239136L1058.8170050620101,893.885471962858Z" fill="#155032" stroke="#155032" fill-opacity="1" stroke-opacity="1"/><path d="M1058.8170050620101,893.885471962858L1357.0683141215704,950.3217560239136L1209.1361135127954,875.9528049547225Z" fill="#124c26" stroke="#124c26" fill-opacity="1" stroke-opacity="1"/></g></svg>